<svg width="40" height="47" viewBox="0 0 40 47" fill="none" xmlns="http://www.w3.org/2000/svg">
<path d="M1.34776 25.1156C0.207986 24.3196 0.207982 22.6323 1.34775 21.8362L31.6997 0.63822C33.6416 -0.717996 35.9124 1.83012 34.3424 3.6036L17.9236 22.1502C17.2536 22.9071 17.2536 24.0448 17.9236 24.8016L34.3424 43.3483C35.9124 45.1217 33.6416 47.6699 31.6997 46.3136L1.34776 25.1156Z" fill="#CC7A00"/>
<path d="M6.09779 25.1156C4.95802 24.3196 4.95801 22.6323 6.09778 21.8363L36.4497 0.638243C38.3916 -0.717974 40.6624 1.83014 39.0924 3.60363L22.6736 22.1503C22.0036 22.9071 22.0036 24.0448 22.6736 24.8016L39.0924 43.3483C40.6624 45.1218 38.3916 47.6699 36.4497 46.3137L6.09779 25.1156Z" fill="#CC7A00"/>
</svg>
